HIERARCHY
ROOT Elbow
{
	OFFSET	0.00	0.00	0.00
	CHANNELS 6 Xposition Yposition Zposition Zrotation Xrotation Yrotation
	JOINT L_Wrist
	{
		OFFSET	 0.208349	 0.000000	 0.000000
		CHANNELS 3 Zrotation Xrotation Yrotation
		JOINT L_index_Proximal
		{
			OFFSET	 0.093499	 0.010637	-0.002083
			CHANNELS 3 Zrotation Xrotation Yrotation
			JOINT L_index_b
			{
				OFFSET	 0.033153	 0.000000	 0.000000
				CHANNELS 3 Zrotation Xrotation Yrotation
				JOINT L_index_c
				{
					OFFSET	 0.018651	 0.000000	 0.000000
					CHANNELS 3 Zrotation Xrotation Yrotation
					End Site
					{
						OFFSET	 0.018651	 0.000000	 0.000000
					}
				}
			}
		}
		JOINT L_middle_Proximal
		{
			OFFSET	 0.090632	-0.006115	-0.003750
			CHANNELS 3 Zrotation Xrotation Yrotation
			JOINT L_middle_b
			{
				OFFSET	 0.037194	 0.000000	 0.000000
				CHANNELS 3 Zrotation Xrotation Yrotation
				JOINT L_middle_c
				{
					OFFSET	 0.021943	 0.000000	 0.000000
					CHANNELS 3 Zrotation Xrotation Yrotation
					End Site
					{
						OFFSET	 0.021943	 0.000000	 0.000000
					}
				}
			}
		}
		JOINT L_pinky_Proximal
		{
			OFFSET	 0.074015	-0.035449	-0.000417
			CHANNELS 3 Zrotation Xrotation Yrotation
			JOINT L_pinky_b
			{
				OFFSET	 0.027285	 0.000000	 0.000000
				CHANNELS 3 Zrotation Xrotation Yrotation
				JOINT L_pinky_c
				{
					OFFSET	 0.015093	 0.000000	 0.000000
					CHANNELS 3 Zrotation Xrotation Yrotation
					End Site
					{
						OFFSET	 0.015093	 0.000000	 0.000000
					}
				}
			}
		}
		JOINT L_ring_Proximal
		{
			OFFSET	 0.082801	-0.021859	-0.003750
			CHANNELS 3 Zrotation Xrotation Yrotation
			JOINT L_ring_b
			{
				OFFSET	 0.034478	 0.000000	 0.000000
				CHANNELS 3 Zrotation Xrotation Yrotation
				JOINT L_ring_c
				{
					OFFSET	 0.021377	 0.000000	 0.000000
					CHANNELS 3 Zrotation Xrotation Yrotation
					End Site
					{
						OFFSET	 0.021377	 0.000000	 0.000000
					}
				}
			}
		}
		JOINT L_thumb_Proximal
		{
			OFFSET	 0.030306	 0.018528	 0.004584
			CHANNELS 3 Zrotation Xrotation Yrotation
			JOINT L_thumb_a
			{
				OFFSET	 0.038520	 0.000000	 0.000000
				CHANNELS 3 Zrotation Xrotation Yrotation
				JOINT L_thumb_b
				{
					OFFSET	 0.026310	 0.000000	 0.000000
					CHANNELS 3 Zrotation Xrotation Yrotation
					End Site
					{
						OFFSET	 0.026310	 0.000000	 0.000000
					}
				}
			}
		}
	}
}
MOTION
Frames:    7
Frame Time: 0.01666667
 0.206126	-0.147638	-0.315669	-70.160980	 31.956780	-60.300690	-4.153115	-2.445006	-14.014110	-7.994363	 0.842043	-3.995723	-1.011235	 0.131283	-14.793340	-1.456483	 0.111496	-8.754319	-20.281560	-7.326695	-4.425033	 0.702764	-0.081200	-13.182200	-1.230506	 0.084070	-7.817130	-38.296880	-18.534280	-6.385696	-1.528553	 0.205149	-15.287770	 1.874131	-0.150534	-9.183842	-29.897780	-9.354956	-12.850450	 0.618731	-0.102558	-18.822420	-0.645835	 0.058689	-10.385360	 58.614060	 62.163650	-7.097684	 0.443489	 0.040672	 10.478920	 0.145627	 0.000600	 0.476656
 0.206277	-0.147526	-0.316028	-70.196890	 31.939390	-60.281680	-4.181624	-2.437805	-13.971910	-7.973542	 0.842467	-4.029134	-0.984949	 0.128179	-14.829150	-1.470359	 0.112628	-8.760453	-20.288030	-7.341786	-4.251321	 0.716191	-0.082586	-13.156900	-1.246231	 0.085379	-7.838571	-38.218570	-18.543880	-6.366318	-1.511173	 0.202415	-15.256970	 1.845537	-0.148677	-9.210452	-29.887540	-9.360366	-12.809590	 0.624279	-0.103935	-18.904800	-0.652195	 0.059570	-10.438720	 58.679070	 62.156330	-7.126007	 0.450255	 0.041160	 10.441050	 0.157032	 0.000586	 0.426246
 0.206456	-0.147417	-0.316520	-70.183350	 31.945960	-60.288850	-4.221578	-2.430242	-13.927610	-7.933431	 0.833219	-3.967205	-0.967822	 0.126233	-14.862380	-1.482874	 0.113875	-8.782200	-20.274600	-7.350886	-4.178152	 0.722693	-0.083612	-13.198480	-1.243677	 0.085472	-7.862267	-38.154940	-18.544340	-6.444548	-1.509305	 0.202416	-15.275960	 1.817153	-0.147471	-9.278480	-29.841360	-9.377242	-12.735000	 0.609932	-0.101794	-18.949590	-0.678933	 0.062195	-10.468910	 58.874910	 62.107780	-7.351235	 0.504233	 0.046079	 10.443550	 0.112875	 0.000467	 0.470748
 0.206617	-0.147272	-0.317032	-70.122530	 31.976950	-60.318360	-4.247534	-2.418159	-13.856890	-7.862252	 0.827146	-4.006169	-0.967026	 0.126526	-14.908610	-1.497869	 0.115120	-8.788512	-20.283880	-7.345221	-4.233531	 0.727873	-0.084439	-13.233070	-1.230463	 0.084360	-7.842917	-38.149960	-18.534930	-6.555099	-1.531861	 0.206207	-15.332710	 1.804692	-0.146598	-9.287143	-29.842660	-9.382078	-12.686910	 0.592984	-0.098855	-18.931330	-0.687673	 0.062849	-10.445090	 59.008320	 62.066390	-7.539739	 0.513729	 0.046866	 10.428770	 0.062506	 0.000287	 0.472642
 0.206739	-0.147149	-0.317465	-70.112040	 31.982170	-60.323700	-4.261806	-2.402966	-13.768000	-7.823460	 0.828672	-4.079003	-0.970014	 0.127463	-14.971180	-1.491927	 0.114577	-8.783126	-20.305890	-7.330032	-4.360420	 0.735434	-0.085487	-13.259470	-1.207724	 0.082599	-7.826383	-38.137810	-18.532280	-6.595536	-1.549152	 0.209573	-15.407900	 1.806881	-0.146773	-9.286807	-29.871390	-9.361985	-12.830160	 0.582449	-0.097510	-19.004860	-0.658033	 0.060274	-10.472970	 59.090580	 62.053790	-7.600881	 0.504099	 0.045585	 10.332670	 0.053702	 0.000177	 0.369715
 0.206841	-0.147109	-0.317640	-70.117310	 31.979620	-60.320920	-4.257274	-2.391026	-13.698200	-7.851389	 0.835016	-4.130607	-0.983703	 0.129764	-15.028930	-1.473812	 0.112718	-8.745954	-20.340550	-7.304363	-4.591823	 0.745153	-0.087395	-13.379170	-1.181192	 0.080708	-7.817749	-38.296500	-18.495290	-6.809587	-1.662967	 0.229635	-15.725920	 1.777868	-0.147796	-9.500287	-29.907970	-9.330120	-13.082560	 0.606719	-0.102313	-19.144960	-0.620390	 0.056937	-10.487470	 59.139880	 62.026170	-7.738675	 0.504936	 0.045240	 10.242520	 0.030720	 0.000118	 0.339505
 0.206874	-0.147180	-0.317588	-70.120270	 31.978180	-60.319350	-4.227343	-2.381768	-13.644030	-7.924407	 0.848040	-4.200881	-0.981197	 0.129752	-15.066660	-1.457805	 0.111352	-8.734810	-20.366800	-7.279051	-4.824912	 0.757328	-0.089980	-13.551880	-1.177802	 0.080923	-7.860601	-38.567100	-18.434960	-7.127020	-1.778566	 0.250046	-16.004690	 1.790263	-0.151263	-9.658644	-29.983760	-9.290741	-13.328690	 0.626182	-0.106208	-19.252750	-0.603380	 0.055395	-10.491200	 59.017230	 62.041020	-7.684362	 0.477129	 0.042786	 10.245880	 0.025333	 0.000066	 0.355975
